<svg width="900" height="1100" viewBox="0 0 900 1100" fill="none" xmlns="http://www.w3.org/2000/svg" role="img" aria-labelledby="title desc">
  <title id="title">Classroom handout artifact preview</title>
  <desc id="desc">A stylized teacher handout with highlighted before class, during reading, and receipt sections.</desc>
  <rect width="900" height="1100" rx="52" fill="#FFF8ED"/>
  <rect x="74" y="78" width="752" height="944" rx="34" fill="white" stroke="#E6D7C5" stroke-width="3"/>
  <rect x="112" y="124" width="312" height="24" rx="12" fill="#0F6F72"/>
  <rect x="112" y="168" width="538" height="18" rx="9" fill="#BCC8CE"/>
  <rect x="112" y="204" width="392" height="18" rx="9" fill="#DFE6E8"/>
  <rect x="112" y="278" width="676" height="156" rx="24" fill="#E0F4F1"/>
  <text x="146" y="330" fill="#102033" font-size="30" font-family="Inter, Arial, sans-serif" font-weight="800">Before Class</text>
  <circle cx="154" cy="376" r="9" fill="#0F8B8D"/>
  <rect x="176" y="367" width="430" height="16" rx="8" fill="#7CBDBA"/>
  <circle cx="154" cy="410" r="9" fill="#0F8B8D"/>
  <rect x="176" y="401" width="354" height="16" rx="8" fill="#7CBDBA"/>
  <rect x="112" y="474" width="310" height="206" rx="24" fill="#FFF2C9"/>
  <text x="146" y="526" fill="#102033" font-size="28" font-family="Inter, Arial, sans-serif" font-weight="800">During Reading</text>
  <rect x="146" y="566" width="210" height="14" rx="7" fill="#F7B733"/>
  <rect x="146" y="598" width="236" height="14" rx="7" fill="#E0B555"/>
  <rect x="146" y="630" width="170" height="14" rx="7" fill="#F7B733"/>
  <rect x="468" y="474" width="320" height="206" rx="24" fill="#FBE6DC"/>
  <text x="502" y="526" fill="#102033" font-size="28" font-family="Inter, Arial, sans-serif" font-weight="800">Student Text</text>
  <rect x="502" y="566" width="220" height="14" rx="7" fill="#E86F51"/>
  <rect x="502" y="598" width="176" height="14" rx="7" fill="#F4A08E"/>
  <rect x="502" y="630" width="246" height="14" rx="7" fill="#F4A08E"/>
  <rect x="112" y="730" width="676" height="218" rx="24" fill="#ECE5FA"/>
  <text x="146" y="782" fill="#102033" font-size="30" font-family="Inter, Arial, sans-serif" font-weight="800">Receipts Rail</text>
  <rect x="146" y="824" width="156" height="72" rx="18" fill="white"/>
  <rect x="328" y="824" width="156" height="72" rx="18" fill="white"/>
  <rect x="510" y="824" width="156" height="72" rx="18" fill="white"/>
  <circle cx="176" cy="860" r="12" fill="#0F8B8D"/>
  <circle cx="358" cy="860" r="12" fill="#E86F51"/>
  <circle cx="540" cy="860" r="12" fill="#8C68C8"/>
  <rect x="196" y="852" width="74" height="12" rx="6" fill="#BCC8CE"/>
  <rect x="378" y="852" width="74" height="12" rx="6" fill="#BCC8CE"/>
  <rect x="560" y="852" width="74" height="12" rx="6" fill="#BCC8CE"/>
</svg>
